<svg xmlns="http://www.w3.org/2000/svg" version="1.1" xmlns:xlink="http://www.w3.org/1999/xlink" xmlns:svgjs="http://svgjs.dev/svgjs" width="2000" height="358" viewBox="0 0 2000 358"><g transform="matrix(1,0,0,1,-1.2121212121212466,-1.088498261004446)"><svg viewBox="0 0 396 71" data-background-color="#ffffff" preserveAspectRatio="xMidYMid meet" height="358" width="2000" xmlns="http://www.w3.org/2000/svg" xmlns:xlink="http://www.w3.org/1999/xlink"><g id="tight-bounds" transform="matrix(1,0,0,1,0.2400000000000091,0.21587535343942932)"><svg viewBox="0 0 395.52 70.56824929312116" height="70.56824929312116" width="395.52"><g><svg viewBox="0 0 499.9600497622563 89.20232966278357" height="70.56824929312116" width="395.52"><g transform="matrix(1,0,0,1,104.44004976225628,12.328252507664011)"><svg viewBox="0 0 395.52 64.54582464745555" height="64.54582464745555" width="395.52"><g id="textblocktransform"><svg viewBox="0 0 395.52 64.54582464745555" height="64.54582464745555" width="395.52" id="textblock"><g><svg viewBox="0 0 395.52 64.54582464745555" height="64.54582464745555" width="395.52"><g transform="matrix(1,0,0,1,0,0)"><svg width="395.52" viewBox="1.46 -38.38 238.9 38.99" height="64.54582464745555" data-palette-color="#000000"><path d="M9.18-2.27L9.18-2.27Q8.13-4.25 7.03-7.29 5.93-10.33 4.93-13.82 3.93-17.31 3.15-20.72 2.37-24.12 1.92-26.9 1.46-29.69 1.46-31.25L1.46-31.25Q1.46-31.88 1.73-32.25L1.73-32.25Q2.29-33.03 3.11-33.87 3.93-34.72 5.05-35.64L5.05-35.64Q5.42-35.94 5.74-35.94L5.74-35.94Q6.05-35.94 6.37-35.64L6.37-35.64Q7.52-34.72 8.33-33.87 9.13-33.03 9.69-32.25L9.69-32.25Q9.96-31.88 9.96-31.18L9.96-31.18 9.96-31.27Q9.96-29.66 10.39-26.92 10.82-24.17 11.51-20.91 12.21-17.65 13.02-14.49 13.84-11.33 14.65-8.86L14.65-8.86 14.79-8.86Q16.11-12.13 17.26-15.97 18.41-19.8 19.41-23.8 20.41-27.81 21.29-31.59L21.29-31.59Q21.56-32.69 22.2-33.12 22.85-33.54 24.24-33.54L24.24-33.54 27.17-33.54Q28.42-33.54 29.03-33.18 29.64-32.81 29.91-31.59L29.91-31.59Q30.54-28.76 31.35-25.61 32.15-22.46 33.02-19.35 33.89-16.24 34.78-13.53 35.67-10.82 36.47-8.86L36.47-8.86 36.62-8.86Q37.65-11.18 38.46-14.33 39.28-17.48 39.86-20.76 40.43-24.05 40.73-26.86 41.04-29.66 41.04-31.27L41.04-31.27 41.04-31.18Q41.04-31.88 41.28-32.25L41.28-32.25Q42.46-33.86 44.51-35.64L44.51-35.64Q44.9-35.94 45.19-35.94L45.19-35.94Q45.46-35.94 45.83-35.64L45.83-35.64Q46.92-34.72 47.71-33.87 48.49-33.03 49.05-32.25L49.05-32.25Q49.29-31.86 49.29-31.2L49.29-31.2Q49.29-29.15 48.83-26.27 48.36-23.39 47.57-20.13 46.78-16.87 45.79-13.62 44.8-10.38 43.71-7.56 42.63-4.74 41.58-2.78L41.58-2.78Q40.7-1.15 40-0.57 39.31 0 38.01 0L38.01 0 35.01 0Q33.91 0 33.17-0.49 32.42-0.98 31.62-2.32L31.62-2.32Q31.01-3.34 30.21-5.2 29.42-7.06 28.63-9.24 27.83-11.43 27.2-13.48 26.56-15.53 26.27-16.94L26.27-16.94Q25.93-18.55 25.7-20.06 25.46-21.56 25.42-22.41L25.42-22.41 25.22-22.41Q25.17-21.56 24.91-20.06 24.66-18.55 24.29-16.94L24.29-16.94Q23.93-15.33 23.32-13.26 22.71-11.18 21.97-9.08 21.24-6.98 20.51-5.2 19.78-3.42 19.14-2.37L19.14-2.37Q18.43-1.17 17.59-0.59 16.75 0 15.26 0L15.26 0 12.5 0Q11.21 0 10.55-0.46 9.89-0.93 9.18-2.27ZM49.29-31.27L49.29-31.27 49.29-31.18 49.29-31.2Q49.29-31.25 49.29-31.27ZM1.46-31.18L1.46-31.27 1.46-31.25 1.46-31.18ZM66.04 0.61L66.04 0.61Q59.89 0.61 56.3-2.66 52.71-5.93 52.71-12.4L52.71-12.4Q52.71-19.04 56.43-22.33 60.15-25.61 66.38-25.61L66.38-25.61Q72.39-25.61 76-22.38 79.61-19.14 79.61-12.84L79.61-12.84Q79.61-6.27 76-2.83 72.39 0.61 66.04 0.61ZM66.28-5.3L66.28-5.3Q68.97-5.3 70.33-6.97 71.7-8.64 71.7-12.7L71.7-12.7Q71.7-16.55 70.32-18.13 68.94-19.7 66.23-19.7L66.23-19.7Q63.62-19.7 62.12-18.01 60.62-16.31 60.62-12.5L60.62-12.5Q60.62-8.52 62.05-6.91 63.47-5.3 66.28-5.3ZM92.57-22.17L92.57-20.36 92.67-20.36Q94.5-25.44 99.26-25.44L99.26-25.44Q99.87-25.44 100.26-25.38 100.65-25.32 100.8-25.27L100.8-25.27Q101.17-25.15 101.17-24.71L101.17-24.71 101.17-18.82Q101.17-18.07 100.29-18.41L100.29-18.41Q100-18.53 99.45-18.66 98.9-18.8 97.92-18.8L97.92-18.8Q95.41-18.8 93.99-16.96 92.57-15.11 92.57-11.94L92.57-11.94 92.57-1.29Q92.57-0.56 92.27-0.28 91.96 0 91.23 0L91.23 0 86.2 0Q85.47 0 85.16-0.28 84.86-0.56 84.86-1.29L84.86-1.29 84.86-21.75Q84.86-22.34 85.1-22.66L85.1-22.66Q85.62-23.34 86.34-24.05 87.06-24.76 88.11-25.56L88.11-25.56Q88.3-25.71 88.5-25.76 88.69-25.81 88.84-25.81L88.84-25.81Q89.18-25.81 89.52-25.56L89.52-25.56Q91.55-23.97 92.35-22.85L92.35-22.85Q92.57-22.56 92.57-22.17L92.57-22.17ZM112.52-10.21L112.52-1.29Q112.52-0.56 112.21-0.28 111.91 0 111.17 0L111.17 0 106.14 0Q105.41 0 105.11-0.28 104.8-0.56 104.8-1.29L104.8-1.29 104.8-34.33Q104.8-34.91 105.05-35.23L105.05-35.23Q106.07-36.57 108.05-38.13L108.05-38.13Q108.39-38.38 108.66-38.38L108.66-38.38Q108.98-38.38 109.27-38.13L109.27-38.13Q110.32-37.33 111.04-36.62 111.76-35.91 112.27-35.23L112.27-35.23Q112.52-34.91 112.52-34.33L112.52-34.33 112.52-15.16 112.81-15.16Q116.52-15.16 117.85-16.49 119.18-17.82 119.18-20.19L119.18-20.19 119.18-21.51Q119.18-22.09 119.43-22.41L119.43-22.41Q120.45-23.75 122.43-25.32L122.43-25.32Q122.77-25.56 123.04-25.56L123.04-25.56Q123.36-25.56 123.65-25.32L123.65-25.32Q124.7-24.51 125.42-23.8 126.14-23.1 126.65-22.41L126.65-22.41Q126.9-22.09 126.9-21.51L126.9-21.51 126.9-20.19Q126.9-18.8 126.35-17.11 125.8-15.43 124.36-14.14 122.92-12.84 120.26-12.62L120.26-12.62 120.26-12.5Q122.31-11.6 123.8-10.11 125.29-8.62 126.29-6.92 127.29-5.22 127.84-3.67 128.39-2.12 128.56-1.05L128.56-1.05Q128.73 0 127.85 0L127.85 0 121.43 0Q120.6 0 120.48-1L120.48-1Q120.31-2.15 119.73-3.7 119.16-5.25 118.19-6.74 117.23-8.23 115.87-9.22 114.52-10.21 112.81-10.21L112.81-10.21 112.52-10.21ZM152.55-33.08L152.55-33.08Q153.9-31.2 155.3-28.23 156.7-25.27 158.02-21.73 159.34-18.19 160.4-14.49 161.46-10.79 162.15-7.37 162.83-3.96 162.93-1.29L162.93-1.29Q162.95 0 161.76 0L161.76 0 155.85 0Q154.7 0 154.65-1.15L154.65-1.15Q154.56-3.88 153.77-7.79L153.77-7.79 140.44-7.79Q139.76-3.98 139.66-1.15L139.66-1.15Q139.61 0 138.42 0L138.42 0 132.63 0Q132.19 0 131.9-0.26 131.61-0.51 131.63-1.15L131.63-1.15Q131.75-3.86 132.42-7.31 133.1-10.77 134.17-14.48 135.24-18.19 136.56-21.74 137.88-25.29 139.3-28.25 140.71-31.2 142.06-33.08L142.06-33.08Q142.76-34.08 143.56-34.55 144.35-35.01 145.52-35.01L145.52-35.01 149.04-35.01Q150.23-35.01 151.04-34.55 151.85-34.08 152.55-33.08ZM147.18-27.29L147.04-27.29Q145.42-24.73 144.08-21.17 142.74-17.6 141.76-13.84L141.76-13.84 152.36-13.84Q151.33-17.6 149.99-21.17 148.65-24.73 147.18-27.29L147.18-27.29ZM176.77 0.61L176.77 0.61Q168.08 0.61 168.08-9.91L168.08-9.91 168.05-22.31Q168.05-22.9 168.3-23.22L168.3-23.22Q169.32-24.56 171.3-26.12L171.3-26.12Q171.64-26.37 171.91-26.37L171.91-26.37Q172.23-26.37 172.52-26.12L172.52-26.12Q173.57-25.32 174.29-24.61 175.01-23.9 175.52-23.22L175.52-23.22Q175.77-22.9 175.77-22.31L175.77-22.31 175.77-10.6Q175.77-5.3 179.97-5.3L179.97-5.3Q182.04-5.3 183.29-6.75 184.53-8.2 184.53-10.69L184.53-10.69 184.53-22.31Q184.53-22.9 184.78-23.22L184.78-23.22Q185.8-24.56 187.78-26.12L187.78-26.12Q188.12-26.37 188.39-26.37L188.39-26.37Q188.71-26.37 189-26.12L189-26.12Q190.05-25.32 190.77-24.61 191.49-23.9 192-23.22L192-23.22Q192.25-22.9 192.25-22.31L192.25-22.31 192.25-1.12Q192.25-0.66 191.93-0.33 191.61 0 191.13 0L191.13 0 187.46 0Q187.07 0 186.77-0.11 186.46-0.22 186.19-0.54L186.19-0.54 184.68-2.49 184.51-2.49Q184.12-1.93 183.3-1.2 182.48-0.46 180.93 0.07 179.38 0.61 176.77 0.61ZM206.55-22.17L206.55-20.36 206.65-20.36Q208.48-25.44 213.24-25.44L213.24-25.44Q213.85-25.44 214.24-25.38 214.63-25.32 214.78-25.27L214.78-25.27Q215.15-25.15 215.15-24.71L215.15-24.71 215.15-18.82Q215.15-18.07 214.27-18.41L214.27-18.41Q213.97-18.53 213.42-18.66 212.88-18.8 211.9-18.8L211.9-18.8Q209.38-18.8 207.97-16.96 206.55-15.11 206.55-11.94L206.55-11.94 206.55-1.29Q206.55-0.56 206.25-0.28 205.94 0 205.21 0L205.21 0 200.18 0Q199.45 0 199.14-0.28 198.84-0.56 198.84-1.29L198.84-1.29 198.84-21.75Q198.84-22.34 199.08-22.66L199.08-22.66Q199.59-23.34 200.31-24.05 201.03-24.76 202.08-25.56L202.08-25.56Q202.28-25.71 202.48-25.76 202.67-25.81 202.82-25.81L202.82-25.81Q203.16-25.81 203.5-25.56L203.5-25.56Q205.53-23.97 206.33-22.85L206.33-22.85Q206.55-22.56 206.55-22.17L206.55-22.17ZM225.25 0.61L225.25 0.61Q221.66 0.61 219.55-1.4 217.44-3.42 217.44-6.96L217.44-6.96Q217.44-8.79 218.11-10.36 218.78-11.94 220.45-13.15 222.13-14.36 225.14-15.09 228.16-15.82 232.84-15.94L232.84-15.94Q232.84-18.16 231.73-19.14 230.62-20.12 228.4-20.12L228.4-20.12Q226.4-20.12 225.13-19.43 223.86-18.75 223.54-18.51L223.54-18.51Q223.2-18.21 222.71-18.29L222.71-18.29Q222.05-18.38 221.31-18.63 220.56-18.87 219.71-19.19L219.71-19.19Q219.59-19.24 219.44-19.35 219.29-19.46 219.27-19.68L219.27-19.68Q219.27-19.8 219.29-19.98 219.32-20.17 219.42-20.65L219.42-20.65Q219.51-21.14 219.71-21.86 219.9-22.58 220.08-22.97L220.08-22.97Q220.3-23.39 220.81-23.75L220.81-23.75Q221.22-24.1 223.32-24.85 225.42-25.61 229.4-25.61L229.4-25.61Q240.36-25.61 240.36-14.94L240.36-14.94 240.36-1.12Q240.36-0.66 240.11-0.33 239.85 0 239.24 0L239.24 0 235.58 0Q235.19 0 234.88-0.11 234.58-0.22 234.31-0.54L234.31-0.54 232.8-2.49 232.62-2.49Q231.5-0.85 229.61-0.12 227.72 0.61 225.25 0.61ZM227.94-5.05L227.94-5.05Q230.18-5.05 231.33-6.2 232.48-7.35 232.8-8.57L232.8-8.57 232.8-11.28Q229.4-11.28 227.7-10.75 226.01-10.23 225.45-9.39 224.88-8.54 224.88-7.57L224.88-7.57Q224.88-6.15 225.76-5.6 226.64-5.05 227.94-5.05Z" opacity="1" transform="matrix(1,0,0,1,0,0)" fill="#000000" class="wordmark-text-0" data-fill-palette-color="primary" id="text-0"></path></svg></g></svg></g></svg></g></svg></g><g><svg viewBox="0 0 89.20232966278357 89.20232966278357" height="89.20232966278357" width="89.20232966278357"><g><svg xmlns="http://www.w3.org/2000/svg" xmlns:xlink="http://www.w3.org/1999/xlink" version="1.1" x="0" y="0" viewBox="10 10 80 80" style="enable-background:new 0 0 100 100;" xml:space="preserve" height="89.20232966278357" width="89.20232966278357" class="icon-icon-0" data-fill-palette-color="accent" id="icon-0"><path d="M44.3 32.9C44.3 28.8 45.4 25 47.3 21.6 46.3 21.5 45.3 21.4 44.3 21.4 25.4 21.4 10 36.8 10 55.7S25.4 90 44.3 90 78.6 74.6 78.6 55.7C78.6 54.7 78.5 53.7 78.4 52.7 75.1 54.6 71.2 55.7 67.1 55.7 54.5 55.7 44.3 45.5 44.3 32.9" fill="#0077b6" data-fill-palette-color="accent"></path><path d="M90 32.9C90 20.2 79.8 10 67.1 10 58.6 10 51.2 14.7 47.2 21.6 63.8 23 77 36.2 78.4 52.7 85.3 48.8 90 41.4 90 32.9" fill="#0077b6" data-fill-palette-color="accent"></path></svg></g></svg></g></svg></g><defs></defs></svg><rect width="395.52" height="70.56824929312116" fill="none" stroke="none" visibility="hidden"></rect></g></svg></g></svg>